<svg width="0" height="0" class="hidden">
  <symbol id="logo" xmlns="http://www.w3.org/2000/svg" viewBox="0 0 72 72">
    <g id="color">
      <polygon fill="#8967AA" points="10,21 10,35 13,35 13,38 16,38 16,45 22,45 22,51 27,51 28,51 28,45 44,45 44,51 50,51 50,45 56,45 56,38 59,38 59,35 62,35 62,20 56,20 56,24 56,25 49,25 49,20 45,20 45,14 39,14 39,20 32,20 32,14 26,14 26,20 22,20 22,25 16,25 16,20 10,20"></polygon>
      <rect x="16" y="51" width="6" height="6" fill="#8967AA"></rect>
      <rect x="50" y="51" width="6" height="6" fill="#8967AA"></rect>
    </g>
    <g id="line">
      <rect x="25.175" y="31" width="3.6" height="6" stroke="#000000" stroke-linecap="round" stroke-linejoin="round" stroke-width="2"></rect>
      <polyline fill="none" stroke="#000000" stroke-linecap="round" stroke-linejoin="round" stroke-width="2" points="22,45 16,45 16,39"></polyline>
      <polyline fill="none" stroke="#000000" stroke-linecap="round" stroke-linejoin="round" stroke-width="2" points="22.583,25 22.583,20 26,20"></polyline>
      <polyline fill="none" stroke="#000000" stroke-linecap="round" stroke-linejoin="round" stroke-width="2" points="48.708,25 48.708,20 45.292,20"></polyline>
      <polyline fill="none" stroke="#000000" stroke-linecap="round" stroke-linejoin="round" stroke-width="2" points="13,35 10,35 10,20 16,20 16,35"></polyline>
      <polyline fill="none" stroke="#000000" stroke-linecap="round" stroke-linejoin="round" stroke-width="2" points="56,35 56,20 62,20 62,35 59,35"></polyline>
      <polyline fill="none" stroke="#000000" stroke-linecap="round" stroke-linejoin="round" stroke-width="2" points="26,20 26,14 32,14 32,20"></polyline>
      <polyline fill="none" stroke="#000000" stroke-linecap="round" stroke-linejoin="round" stroke-width="2" points="39,20 39,14 45,14 45,20"></polyline>
      <polyline fill="none" stroke="#000000" stroke-linecap="round" stroke-linejoin="round" stroke-width="2" points="16,35 19,35 19,38 13,38 13,35"></polyline>
      <polyline fill="none" stroke="#000000" stroke-linecap="round" stroke-linejoin="round" stroke-width="2" points="59,35 59,38 53,38 53,35 56,35"></polyline>
      <rect x="16" y="51" width="6" height="6" fill="none" stroke="#000000" stroke-linecap="round" stroke-linejoin="round" stroke-width="2"></rect>
      <rect x="50" y="51" width="6" height="6" fill="none" stroke="#000000" stroke-linecap="round" stroke-linejoin="round" stroke-width="2"></rect>
      <polyline fill="none" stroke="#000000" stroke-linecap="round" stroke-linejoin="round" stroke-width="2" points="28,45 28,51 22,51 22,45"></polyline>
      <polyline fill="none" stroke="#000000" stroke-linecap="round" stroke-linejoin="round" stroke-width="2" points="50,45 56,45 56,39"></polyline>
      <polyline fill="none" stroke="#000000" stroke-linecap="round" stroke-linejoin="round" stroke-width="2" points="44,45 44,51 50,51 50,45"></polyline>
      <rect x="43.425" y="31" width="3.6" height="6" stroke="#000000" stroke-linecap="round" stroke-linejoin="round" stroke-width="2"></rect>
      <path fill="none" stroke="#000000" stroke-linecap="round" stroke-linejoin="round" stroke-width="2" d="M44,45L44,45z"></path>
      <path fill="none" stroke="#000000" stroke-linecap="round" stroke-linejoin="round" stroke-width="2" d="M39,20L39,20z"></path>
      <path fill="none" stroke="#000000" stroke-linecap="round" stroke-linejoin="round" stroke-width="2" d="M16,25L16,25z"></path>
      <path fill="none" stroke="#000000" stroke-linecap="round" stroke-linejoin="round" stroke-width="2" d="M49,25L49,25z"></path>
      <line x1="28" x2="44" y1="45" y2="45" fill="none" stroke="#000000" stroke-linecap="round" stroke-linejoin="round" stroke-width="2"></line>
      <line x1="32" x2="39" y1="20" y2="20" fill="none" stroke="#000000" stroke-linecap="round" stroke-linejoin="round" stroke-width="2"></line>
      <line x1="16" x2="22" y1="25" y2="25" fill="none" stroke="#000000" stroke-linecap="round" stroke-linejoin="round" stroke-width="2"></line>
      <line x1="49" x2="56" y1="25" y2="25" fill="none" stroke="#000000" stroke-linecap="round" stroke-linejoin="round" stroke-width="2"></line>
    </g>
  </symbol>

  <symbol xmlns="http://www.w3.org/2000/svg" aria-label="HTML5" role="img" viewBox="0 0 512 512" id="html5">
    <path fill="#e34f26" d="M71 460L30 0h451l-41 460-185 52"></path>
    <path fill="#ef652a" d="M256 472l149-41 35-394H256"></path>
    <path fill="#ebebeb" d="M256 208h-75l-5-58h80V94H114l15 171h127zm-1 147l-63-17-4-45h-56l7 89 116 32z"></path>
    <path fill="#fff" d="M255 208v57h70l-7 73-63 17v59l116-32 16-174zm0-114v56h137l5-56z"></path>
  </symbol>

  <symbol xmlns="http://www.w3.org/2000/svg" viewBox="0 0 24 24" id="npm">
    <g fill="none" fill-rule="evenodd">
      <rect width="24" height="24" fill="#D40001"></rect>
      <path fill="#FFF" d="M16.7179487,7.92840493 L12.2051282,7.92840493 L12.2051282,20.2494172 L4,20.2494172 L4,3 L12.2051282,3 L20,3 L20,7.92840493 L20,20.2494172 L16.7179487,20.2494172 L16.7179487,7.92840493 Z"></path>
    </g>
  </symbol>

  <symbol xmlns="http://www.w3.org/2000/svg" preserveAspectRatio="xMinYMin meet" viewBox="-155 0 566 566" id="gulp">
    <path d="M197.28 548.749l5.427-90.43 14.985-25.58s-34.106 13.952-91.205 13.952c-57.1 0-90.689-13.694-90.689-13.694l16.794 27.904 5.941 87.848c0 9.418 31.059 17.052 69.374 17.052 38.313 0 69.373-7.634 69.373-17.052M180.161 126.454l11.391-45.025 63.081-66.376L238.007.892l-66.784 70.707-13.226 53.793a886.14 886.14 0 0 0-29.873-.497c-70.336 0-127.355 8.016-127.355 17.902 0 9.887 57.019 17.902 127.355 17.902 70.335 0 127.353-8.015 127.353-17.902 0-7.28-30.924-13.546-75.316-16.343" fill="#D34A47"></path>
    <path d="M173.535 151.669s-2.467.553-9.724.584c-7.259.03-12.413-.047-14.466-1.917-.552-.502-.854-1.499-.851-2.174.006-1.285.918-2.042 2.08-2.516l1.099 1.724c-.478.165-.751.36-.752.568-.004.976 7.422 1.644 13.102 1.572 5.681-.07 12.545-.538 12.551-1.5 0-.291-.519-.565-1.422-.781l1.094-1.712c1.472.457 2.757 1.34 2.754 2.868-.014 2.598-3.32 2.993-5.465 3.284" fill="#FFF"></path>
    <path d="M254.509 15.184c1.586-1.832-.821-6.518-5.376-10.465C244.576.774 239.596-.94 238.007.892c-1.587 1.832.821 6.518 5.378 10.463 4.555 3.946 9.537 5.662 11.124 3.829M194.246 327.865c-1.495-14.384 31.462-35.216 23.004-35.883-18.208 1.041-27.27 21.338-36.431 42.596-3.357 7.791-14.844 41.013-22.378 36.923-7.532-4.088 9.765-31.407 14.613-47.631-5.594 4.102-26.109 20.041-31.396 5.114-8.5 7.219-26.663 11.13-24.614-7.833-4.522 8.01-14.671 19.193-26.853 14.546-15.998-6.101 9.27-57.062 15.553-54.491 6.284 2.57-1.268 14.179-3.246 18.687-4.35 9.921-9.375 22.393-6.018 24.946 5.751 4.374 21.401-16.547 21.749-17.007 2.927-3.867 11.266-29.166 17.987-26.261 6.721 2.905-16.764 36.308-7.983 42.937 1.771 1.338 9.017-.825 13.425-5.594 2.852-3.085 1.871-9.918 11.378-32.59 9.507-22.671 17.98-50.905 24.5-48.754 6.52 2.15 1.146 16.641-1.193 22.043-10.976 25.354-29.956 67.241-21.005 64.07 8.951-3.17 13.612-3.356 22.377-13.613 8.765-10.257 8.361-27.152 14.203-26.793 5.844.36 4.863 5.777 3.446 9.902 5.75-6.58 27.256-20.438 32.448-6.713 6.15 16.249-30.769 39.72-21.564 38.523 8.975-1.167 23.515-10.376 29.723-18.749l17.088-153.626s-17.195 14.23-126.589 14.23c-109.395 0-124.811-13.934-124.811-13.934l14.548 140.224c7.722-21.947 26.059-66.339 54.963-64.849 13.148.678 30.7 25.995 15.665 26.853-6.364.362-7.01-12.637-14.546-14.546-5.438-1.378-13.009 3.043-17.902 7.833-9.758 9.55-30.745 47.229-27.972 66.014 3.533 23.949 33.048-8.322 38.042-17.903 3.517-6.749 5.893-26.745 13.585-24.647 7.693 2.098-.671 22.734-6.247 40.979-6.264 20.487-9.557 42.098-17.408 39.612-7.852-2.484 4.938-28.932 4.475-33.566-7.38 6.809-20.976 24.047-38.37 15.515l9.035 87.078s24.013 18.973 96.35 18.973c72.337 0 97.239-18.677 97.239-18.677l11.219-100.857c-9.179 8.938-38.229 24.81-40.089 6.919" fill="#D34A47"></path>
  </symbol>

  <symbol fill="currentColor" xmlns="http://www.w3.org/2000/svg" viewBox="0 -0.5 25 25" id="jquery">
    <path d="m1.582 5.638c-2.206 3.17-1.931 7.294-.246 10.663.04.08.08.16.123.24.026.05.051.102.08.151.015.03.033.059.049.087.029.054.058.105.088.16q.08.138.16.275c.03.05.06.101.092.151q.091.147.186.292c.026.042.052.08.08.122.088.131.178.262.27.39l.008.01c.014.021.031.041.046.062.08.11.16.22.246.328l.093.118q.112.141.228.28l.087.104c.103.122.209.24.32.362l.006.006.012.013c.106.115.214.228.32.34l.103.104c.085.085.17.169.258.252.035.034.07.068.106.1.116.11.234.217.353.32.002.002.003.004.006.005.02.018.042.035.062.052q.16.137.32.271l.133.106q.132.106.267.209l.143.109c.099.073.199.145.3.214.037.026.072.052.11.08l.03.022c.096.066.194.13.291.193.042.028.08.057.126.08.15.094.302.189.456.279l.126.071c.113.066.226.13.342.192.062.034.126.066.189.098.08.043.16.086.245.127l.057.027.1.049q.192.092.388.18l.08.037q.224.098.453.189l.11.043c.141.054.284.108.427.16l.054.018c.16.055.32.106.48.156l.115.034c.128.046.292.094.461.132l.031.006c10.667 1.945 13.766-6.41 13.766-6.41-2.602 3.39-7.222 4.285-11.6 3.289-.166-.038-.326-.089-.489-.137l-.122-.037q-.24-.073-.47-.153l-.065-.023c-.139-.049-.278-.101-.414-.154l-.116-.046c-.15-.059-.3-.122-.448-.186l-.09-.04c-.127-.058-.253-.115-.378-.175l-.109-.053c-.098-.048-.195-.098-.292-.149-.065-.034-.131-.066-.195-.102-.118-.063-.234-.13-.35-.197l-.118-.066c-.154-.09-.306-.185-.456-.279-.042-.026-.08-.054-.123-.08-.109-.07-.218-.142-.325-.216-.035-.023-.07-.05-.105-.074q-.155-.109-.307-.222c-.046-.034-.091-.069-.136-.103-.093-.071-.186-.142-.277-.217l-.123-.099c-.116-.096-.231-.191-.345-.29l-.038-.032c-.122-.108-.24-.218-.362-.33l-.102-.098q-.133-.126-.26-.255l-.102-.102q-.16-.167-.32-.338l-.016-.017c-.11-.121-.218-.244-.324-.369l-.083-.102c-.08-.095-.16-.191-.233-.288-.029-.034-.058-.07-.086-.106-.092-.119-.182-.24-.27-.358-2.43-3.314-3.303-7.886-1.36-11.64z"></path>
    <path d="m8.429 2.966c-.754 1.166-1.202 2.592-1.202 4.121 0 1.347.347 2.613.958 3.714l-.02-.039c.235.457.469.843.727 1.21l-.022-.032c.244.387.515.723.82 1.024l.001.001c.115.126.235.25.358.371.031.032.062.062.094.094.119.115.24.229.366.339.005.004.01.01.015.013.138.122.282.24.427.353l.097.076c.146.112.294.222.446.326l.013.01c.067.046.136.09.204.134.033.022.064.044.097.064.109.07.219.138.331.203l.046.027c.097.056.194.11.293.16.034.019.069.036.104.054.068.035.136.071.205.106l.03.014c.141.07.282.136.427.199.031.014.062.026.094.039.115.049.233.097.35.142l.15.055c.106.039.214.076.32.112l.146.046c.126.048.281.094.441.13l.024.004c8.236 1.365 10.138-4.977 10.138-4.977-1.714 2.468-5.034 3.646-8.575 2.727-.16-.042-.312-.086-.466-.135-.047-.014-.094-.03-.14-.046-.11-.035-.218-.074-.326-.113l-.147-.054c-.118-.046-.235-.093-.351-.142-.032-.014-.064-.026-.094-.04-.146-.063-.289-.13-.43-.199-.073-.036-.144-.074-.215-.11l-.124-.064q-.138-.075-.273-.154c-.021-.012-.043-.024-.065-.037q-.167-.098-.33-.202c-.034-.022-.066-.045-.099-.066-.072-.046-.143-.094-.214-.142-.152-.105-.299-.214-.445-.326l-.1-.08c-1.549-1.211-2.718-2.843-3.34-4.723l-.02-.07c-.236-.694-.373-1.494-.373-2.325 0-1.338.353-2.594.972-3.679l-.019.037z"></path>
    <path d="m14.188.97c-.504.747-.804 1.668-.804 2.659 0 .715.156 1.393.436 2.002l-.012-.03c.73 1.627 2.059 2.876 3.699 3.484l.045.015c.068.026.135.048.205.071l.09.028c.078.029.176.058.276.081l.017.003c4.547.88 5.781-2.334 6.11-2.806-1.081 1.556-2.896 1.929-5.124 1.389-.176-.043-.37-.106-.539-.167-.262-.093-.474-.183-.679-.283l.039.017c-.428-.209-.795-.436-1.136-.697l.016.012c-1.994-1.513-3.232-4.4-1.931-6.749z"></path>
  </symbol>

  <symbol id="bandage" xmlns="http://www.w3.org/2000/svg" viewBox="0 0 72 72">
    <g id="color">
      <rect x="25" y="27" width="22" height="19" transform="rotate(-45 36 36.5)" fill="#e67a94"></rect>
      <rect x="19.0557" y="38.5157" width="10.8571" height="19" transform="rotate(-45 24.484 48.016)" fill="#ffa7c0"></rect>
      <rect x="12.1053" y="41.3947" rx="8.8214" ry="8.8214" width="19" height="19" transform="rotate(-45 21.605 50.895)" fill="#ffa7c0"></rect>
      <rect x="42.0872" y="15.4843" width="10.8571" height="19" transform="rotate(135 47.516 24.984)" fill="#ffa7c0"></rect>
      <rect x="40.8947" y="12.6053" rx="9.5" ry="9.5" width="19" height="19" transform="rotate(135 50.395 22.105)" fill="#ffa7c0"></rect>
      <circle cx="19.9739" cy="44.465" r="0.6786" fill="#e67a94"></circle>
      <circle cx="22.6609" cy="47.152" r="0.6786" fill="#e67a94"></circle>
      <circle cx="25.348" cy="49.8391" r="0.6786" fill="#e67a94"></circle>
      <circle cx="28.035" cy="52.5261" r="0.6786" fill="#e67a94"></circle>
      <circle cx="17.095" cy="47.344" r="0.6786" fill="#e67a94"></circle>
      <circle cx="19.782" cy="50.031" r="0.6786" fill="#e67a94"></circle>
      <circle cx="22.469" cy="52.718" r="0.6786" fill="#e67a94"></circle>
      <circle cx="25.156" cy="55.405" r="0.6786" fill="#e67a94"></circle>
      <circle cx="46.844" cy="17.595" r="0.6786" fill="#e67a94"></circle>
      <circle cx="49.531" cy="20.282" r="0.6786" fill="#e67a94"></circle>
      <circle cx="52.218" cy="22.969" r="0.6786" fill="#e67a94"></circle>
      <circle cx="54.905" cy="25.656" r="0.6786" fill="#e67a94"></circle>
      <circle cx="43.965" cy="20.4739" r="0.6786" fill="#e67a94"></circle>
      <circle cx="46.652" cy="23.1609" r="0.6786" fill="#e67a94"></circle>
      <circle cx="49.3391" cy="25.848" r="0.6786" fill="#e67a94"></circle>
      <circle cx="52.0261" cy="28.535" r="0.6786" fill="#e67a94"></circle>
    </g>
    <g id="line">
      <line x1="43.6771" x2="14.8878" y1="15.3878" y2="44.1771" stroke="#000" stroke-miterlimit="10" stroke-width="2"></line>
      <line x1="21.6053" x2="35.0403" y1="37.4596" y2="50.8947" fill="none" stroke="#000" stroke-miterlimit="10" stroke-width="2"></line>
      <path fill="none" stroke="#000" stroke-miterlimit="10" stroke-width="2" d="M57.1122,28.8228a9.5,9.5,0,0,0-13.435-13.435"></path>
      <path fill="none" stroke="#000" stroke-miterlimit="10" stroke-width="2" d="M28.3228,57.6122a9.5,9.5,0,0,1-13.435-13.435"></path>
      <line x1="36.9596" x2="50.3947" y1="22.1053" y2="35.5404" fill="none" stroke="#000" stroke-miterlimit="10" stroke-width="2"></line>
      <line x1="28.3229" x2="57.1122" y1="57.6122" y2="28.8228" fill="none" stroke="#000" stroke-miterlimit="10" stroke-width="2"></line>
      <circle cx="19.9739" cy="44.465" r="0.6786"></circle>
      <circle cx="22.6609" cy="47.152" r="0.6786"></circle>
      <circle cx="25.348" cy="49.8391" r="0.6786"></circle>
      <circle cx="28.035" cy="52.5261" r="0.6786"></circle>
      <circle cx="17.095" cy="47.344" r="0.6786"></circle>
      <circle cx="19.782" cy="50.031" r="0.6786"></circle>
      <circle cx="22.469" cy="52.718" r="0.6786"></circle>
      <circle cx="25.156" cy="55.405" r="0.6786"></circle>
      <circle cx="46.844" cy="17.595" r="0.6786"></circle>
      <circle cx="49.531" cy="20.282" r="0.6786"></circle>
      <circle cx="52.218" cy="22.969" r="0.6786"></circle>
      <circle cx="54.905" cy="25.656" r="0.6786"></circle>
      <circle cx="43.965" cy="20.4739" r="0.6786"></circle>
      <circle cx="46.652" cy="23.1609" r="0.6786"></circle>
      <circle cx="49.3391" cy="25.848" r="0.6786"></circle>
      <circle cx="52.0261" cy="28.535" r="0.6786"></circle>
    </g>
  </symbol>

  <symbol xmlns="http://www.w3.org/2000/svg" viewBox="0 0 24 24" id="js">
    <g fill="none" fill-rule="evenodd">
      <rect width="24" height="24" fill="#F1DC50"></rect>
      <path stroke="#333" stroke-width="2" d="M12,11 C12,15.749205 12,18.4158717 12,19 C12,19.8761925 11.4771235,21 10,21 C7.61461794,21 7.5,19 7.5,19 M20.7899648,13.51604 C20.1898831,12.5053467 19.3944074,12 18.4035378,12 C16.8563489,12 16,13 16,14 C16,15 16.5,16 18.5084196,16.5 C19.7864643,16.8181718 21,17.5 21,19 C21,20.5 19.6845401,21 18.5,21 C16.9861609,21 15.9861609,20.3333333 15.5,19"></path>
    </g>
  </symbol>

  <symbol version="1.1" xmlns="http://www.w3.org/2000/svg" xmlns:xlink="http://www.w3.org/1999/xlink" preserveAspectRatio="xMidYMid" viewBox="0 0 256 256" id="svg">
    <g>
      <path d="M245.23538,153.523831 C259.246873,139.512338 259.246423,116.713014 245.23493,102.70107 C238.447775,95.9134648 229.422873,92.1757746 219.823775,92.1757746 C217.544563,92.1757746 215.300507,92.3835493 213.111887,92.7932394 C222.650141,86.2688451 228.831099,75.2978028 228.831099,63.0985915 C228.831099,43.2829296 212.709859,27.1616901 192.894197,27.1616901 C180.670648,27.1616901 169.680676,33.3674366 163.161239,42.9376901 C165.31831,31.5605634 161.934873,19.4010141 153.291718,10.7578592 C146.504563,3.97025352 137.479662,0.232112676 127.880563,0.232112676 C118.281465,0.232112676 109.256563,3.97025352 102.469408,10.7578592 C93.8258028,19.4010141 90.4428169,31.5610141 92.5998873,42.9381408 C86.0804507,33.3678873 75.0900282,27.1616901 62.8664789,27.1616901 C43.0508169,27.1616901 26.9295775,43.2829296 26.9295775,63.0985915 C26.9295775,75.2982535 33.1100845,86.2688451 42.648338,92.7927887 C40.4597183,92.3835493 38.2165634,92.1757746 35.9369014,92.1757746 C26.3378028,92.1757746 17.3133521,95.9139155 10.5257465,102.701521 C3.73814085,109.489127 0,118.514028 0,128.112676 C0,137.711775 3.73814085,146.736225 10.5257465,153.524282 C17.3133521,160.311437 26.3382535,164.049577 35.9369014,164.049577 C38.2161127,164.049577 40.4592676,163.841803 42.648338,163.432113 C33.1100845,169.956507 26.9295775,180.927549 26.9295775,193.126761 C26.9295775,212.942423 43.0508169,229.063211 62.8664789,229.063211 C75.0900282,229.063211 86.0809014,222.857465 92.5998873,213.287211 C90.4428169,224.664789 93.8262535,236.824789 102.469408,245.467944 C109.257014,252.255099 118.281915,255.993239 127.880563,255.993239 C137.479662,255.993239 146.504563,252.255099 153.291718,245.467493 C161.934873,236.824338 165.317859,224.663887 163.160789,213.286761 C169.680225,222.857014 180.670648,229.063211 192.894197,229.063211 C212.709859,229.063211 228.831099,212.942423 228.831099,193.126761 C228.831099,180.927549 222.650141,169.956507 213.112338,163.432113 C215.300958,163.841803 217.544563,164.049577 219.823775,164.049577 C229.422873,164.049577 238.447775,160.311437 245.23538,153.523831" fill="#000000"></path>
      <path d="M234.391437,113.538254 C226.34231,105.489577 213.292169,105.489577 205.243042,113.538254 L163.05893,113.538254 L192.887887,83.7097465 C204.270873,83.7097465 213.498592,74.4820282 213.498592,63.0985915 C213.498592,51.7156056 204.270873,42.4874366 192.887887,42.4874366 C181.504451,42.4874366 172.276732,51.7156056 172.276732,63.0985915 L142.448225,92.9275493 L142.448225,50.7434366 C150.496901,42.6943099 150.496901,29.644169 142.447775,21.5950423 C134.398648,13.5459155 121.348507,13.5459155 113.29938,21.5950423 C105.250254,29.644169 105.250254,42.6943099 113.29938,50.7434366 L113.29938,92.9275493 L83.4708732,63.0985915 C83.4708732,51.7156056 74.2431549,42.4874366 62.8597183,42.4874366 C51.4767324,42.4874366 42.2485634,51.7156056 42.2485634,63.0985915 C42.2485634,74.4820282 51.4767324,83.7097465 62.8597183,83.7097465 L92.6882254,113.538254 L50.5045634,113.538254 C42.4549859,105.489127 29.4048451,105.489577 21.3557183,113.538704 C13.3065915,121.587831 13.3065915,134.637972 21.3557183,142.687099 C29.4048451,150.736225 42.4554366,150.736225 50.5045634,142.687099 L92.6882254,142.687099 L62.8597183,172.515606 C51.4767324,172.515606 42.2485634,181.743324 42.2485634,193.126761 C42.2485634,204.509746 51.4767324,213.737915 62.8597183,213.737915 C74.2431549,213.737915 83.4708732,204.509746 83.4708732,193.126761 L113.29938,163.298254 L113.29938,205.481915 C105.250254,213.531042 105.250254,226.581634 113.29938,234.630761 C121.348507,242.679887 134.399099,242.679887 142.448225,234.630761 C150.496901,226.581634 150.496901,213.531042 142.448225,205.481915 L142.448225,163.298254 L172.276732,193.126761 C172.276732,204.509746 181.504451,213.737915 192.887887,213.737915 C204.270873,213.737915 213.498592,204.509746 213.498592,193.126761 C213.498592,181.743324 204.270873,172.515606 192.887887,172.515606 L163.05893,142.687099 L205.243042,142.687099 C213.292169,150.736225 226.34231,150.736225 234.391437,142.687099 C242.440563,134.637972 242.440563,121.58738 234.391437,113.538254" fill="#FFB13B"></path>
    </g>
  </symbol>

  <symbol fill="currentColor" xmlns="http://www.w3.org/2000/svg" viewBox="0 0 24 24" id="console">
    <path fill-rule="evenodd" clip-rule="evenodd" d="M2 7C2 4.23858 4.23858 2 7 2H17C19.7614 2 22 4.23858 22 7V17C22 19.7614 19.7614 22 17 22H7C4.23858 22 2 19.7614 2 17V7ZM7 4C5.34315 4 4 5.34315 4 7V17C4 18.6569 5.34315 20 7 20H17C18.6569 20 20 18.6569 20 17V7C20 5.34315 18.6569 4 17 4H7ZM7 17C7 16.4477 7.44772 16 8 16H16C16.5523 16 17 16.4477 17 17C17 17.5523 16.5523 18 16 18H8C7.44772 18 7 17.5523 7 17ZM8.70709 7.29288C8.31656 6.90236 7.6834 6.90238 7.29288 7.29291C6.90236 7.68344 6.90238 8.3166 7.29291 8.70712L9.58588 11L7.29291 13.2929C6.90238 13.6834 6.90236 14.3166 7.29288 14.7071C7.6834 15.0976 8.31656 15.0976 8.70709 14.7071L11.7072 11.7071C11.8948 11.5196 12.0001 11.2652 12.0001 11C12.0001 10.7348 11.8948 10.4804 11.7072 10.2929L8.70709 7.29288Z"></path>
  </symbol>

  <symbol xmlns="http://www.w3.org/2000/svg" aria-label="CSS3" role="img" viewBox="0 0 512 512" id="css3">
    <path fill="#264de4" d="M72 460L30 0h451l-41 460-184 52"></path>
    <path fill="#2965f1" d="M256 37V472l149-41 35-394"></path>
    <path fill="#ebebeb" d="m114 94h142v56H119m5 58h132v57H129m3 28h56l4 45 64 17v59L139 382"></path>
    <path fill="#fff" d="m256 208v57h69l-7 73-62 17v59l115-32 26-288H256v56h80l-5.5 58Z"></path>
  </symbol>

  <symbol fill="currentColor" xmlns="http://www.w3.org/2000/svg" viewBox="0 0 32 32" id="scss">
    <path d="M16.171,18.7c-.481.221-1.008.509-2.063,1.088-.4.225-.818.45-1.207.662-.027-.027-.055-.061-.082-.089-2.087-2.23-5.947-3.805-5.783-6.8.061-1.091.436-3.955,7.413-7.433,5.742-2.83,10.311-2.046,11.1-.307C26.683,8.3,23.1,12.913,17.17,13.582a4.469,4.469,0,0,1-3.751-.948c-.314-.341-.361-.361-.477-.293-.191.1-.068.409,0,.586a3.5,3.5,0,0,0,2.141,1.684,11.4,11.4,0,0,0,6.956-.689c3.594-1.391,6.4-5.258,5.578-8.5-.825-3.287-6.281-4.371-11.443-2.537a26,26,0,0,0-8.79,5.047c-2.844,2.66-3.294,4.972-3.11,5.94.662,3.437,5.4,5.674,7.3,7.331-.1.055-.184.1-.259.143-.948.471-4.562,2.36-5.463,4.358-1.023,2.264.164,3.887.948,4.105a5.832,5.832,0,0,0,6.281-2.544,6.3,6.3,0,0,0,.559-5.8,5.03,5.03,0,0,1,.716-.477c.484-.286.945-.568,1.354-.786l0,0a10.475,10.475,0,0,1,4.475-.989c3.246.382,3.887,2.407,3.764,3.26a2.157,2.157,0,0,1-1.03,1.459c-.225.143-.3.191-.28.293.027.15.136.143.327.116a2.535,2.535,0,0,0,1.766-2.257c.1-2-1.807-4.194-5.183-4.174a7.753,7.753,0,0,0-2.946.587q-.225.093-.437.2Zm-4.825,7.839c-1.078,1.173-2.578,1.616-3.226,1.241-.7-.4-.423-2.135.9-3.376a17.18,17.18,0,0,1,2.53-1.889c.157-.1.389-.232.668-.4.048-.027.075-.041.075-.041l.164-.1A4.658,4.658,0,0,1,11.346,26.539Z"></path>
  </symbol>

  <symbol xmlns="http://www.w3.org/2000/svg" viewBox="0 0 24 24" id="figma">
    <g fill="none" fill-rule="evenodd" transform="translate(4)">
      <circle cx="12" cy="12" r="4" fill="#19BCFE"></circle>
      <path fill="#09CF83" d="M4,24 C6.209139,24 8,22.209139 8,20 C8,19.3969461 8,18.0636128 8,16 C6.20303877,16 4.86970543,16 4,16 C1.790861,16 0,17.790861 0,20 C0,22.209139 1.790861,24 4,24 Z"></path>
      <path fill="#A259FF" d="M4,16 C4.73637967,16 6.069713,16 8,16 L8,8 C6.069713,8 4.73637967,8 4,8 C1.790861,8 0,9.790861 0,12 C0,14.209139 1.790861,16 4,16 Z"></path>
      <path fill="#F24E1E" d="M4,8 C4.73637967,8 6.069713,8 8,8 L8,0 C6.069713,0 4.73637967,0 4,0 C1.790861,0 0,1.790861 0,4 C0,6.209139 1.790861,8 4,8 Z"></path>
      <path fill="#FF7262" d="M12,8 L8,8 L8,8 L8,0 L12,0 L12,0 C14.209139,0 16,1.790861 16,4 C16,6.209139 14.209139,8 12,8 Z"></path>
    </g>
  </symbol>

  <symbol version="1.1" xmlns="http://www.w3.org/2000/svg" xmlns:xlink="http://www.w3.org/1999/xlink" preserveAspectRatio="xMidYMid" viewBox="0 0 256 256" id="git">
    <g>
      <path d="M251.172245,116.593517 L139.398753,4.82845302 C132.966433,-1.60948434 122.525852,-1.60948434 116.085106,4.82845302 L92.8753863,28.0381721 L122.317995,57.4807809 C129.16041,55.1690784 137.005593,56.7195763 142.460425,62.1744081 C147.940536,67.6629464 149.479799,75.5755422 147.111919,82.4404282 L175.487156,110.815665 C182.352042,108.450594 190.273064,109.98143 195.755985,115.472777 C203.418591,123.132574 203.418591,135.547794 195.755985,143.213209 C188.09057,150.878624 175.67535,150.878624 168.007126,143.213209 C162.243319,137.443783 160.81922,128.977839 163.737639,121.877008 L137.275245,95.4146135 L137.272436,165.052198 C139.140337,165.979126 140.904309,167.212221 142.460425,168.762719 C150.123031,176.422516 150.123031,188.837736 142.460425,196.508768 C134.79501,204.171375 122.374173,204.171375 114.719993,196.508768 C107.057387,188.837736 107.057387,176.422516 114.719993,168.762719 C116.613174,166.872347 118.804095,165.442631 121.141077,164.481996 L121.141077,94.1955625 C118.804095,93.2405457 116.615983,91.8192558 114.719993,89.9148396 C108.914052,84.1173254 107.518042,75.5980132 110.492639,68.4690928 L81.4713611,39.4421974 L4.83125614,116.076685 C-1.60949009,122.52024 -1.60949009,132.960821 4.83125614,139.398759 L116.604747,251.166631 C123.039876,257.604569 133.477648,257.604569 139.921203,251.166631 L251.172245,139.9184 C257.61018,133.477654 257.61018,123.031455 251.172245,116.593517" fill="#DE4C36"></path>
    </g>
  </symbol>

  <symbol id="github" xmlns="http://www.w3.org/2000/svg" viewBox="0 0 72 72">
    <g id="color">
      <path fill="#d0cfce" stroke="none" d="m 29.043969,61.611125 c 0,-0.927468 -0.03474,-3.979828 -0.03474,-7.764543 0,-2.646092 0.874013,-4.372735 1.862956,-5.252093 -6.227673,-0.721661 -12.778757,-3.153928 -12.778757,-14.034982 0,-3.0978 1.095858,-5.631632 2.886648,-7.614865 -0.285992,-0.71899 -1.253553,-3.605637 0.277973,-7.513301 0,0 2.354755,-0.764427 7.716434,2.90803 2.23715,-0.628113 4.637344,-0.946179 7.026845,-0.951526 2.384156,0.0054 4.784349,0.323413 7.026846,0.951526 5.356333,-3.672457 7.711088,-2.90803 7.711088,-2.90803 1.531527,3.907664 0.569311,6.794311 0.277974,7.513301 1.796134,1.983233 2.8813,4.514393 2.8813,7.614865 0,10.905109 -6.559101,13.307975 -12.816176,14.008253 1.013001,0.882032 1.908395,2.611346 1.908395,5.262785 0,3.792732 -0.03474,6.85044 -0.03474,7.78058 0,0.761755 0.505162,1.641114 1.929775,1.368486 11.145665,-3.757987 19.17749,-14.395813 19.17749,-26.931342 0,-15.678767 -12.567603,-28.3880299 -28.067291,-28.3880299 -15.494341,0 -28.0592708,12.7065899 -28.0592708,28.3880299 0,12.540875 8.0398428,23.181374 19.2015438,26.934015 1.395212,0.261936 1.905721,-0.614749 1.905721,-1.371159 z"></path>
    </g>
    <g id="hair"></g>
    <g id="skin"></g>
    <g id="skin-shadow"></g>
    <g id="line">
      <path fill="none" stroke="#000000" stroke-linecap="round" stroke-linejoin="round" stroke-miterlimit="10" stroke-width="2" d="m 29.043969,61.611125 c 0,-0.927468 -0.03474,-3.979828 -0.03474,-7.764543 0,-2.646092 0.874013,-4.372735 1.862956,-5.252093 -6.227673,-0.721661 -12.778757,-3.153928 -12.778757,-14.034982 0,-3.0978 1.095858,-5.631632 2.886648,-7.614865 -0.285992,-0.71899 -1.253553,-3.605637 0.277973,-7.513301 0,0 2.354755,-0.764427 7.716434,2.90803 2.23715,-0.628113 4.637344,-0.946179 7.026845,-0.951526 2.384156,0.0054 4.784349,0.323413 7.026846,0.951526 5.356333,-3.672457 7.711088,-2.90803 7.711088,-2.90803 1.531527,3.907664 0.569311,6.794311 0.277974,7.513301 1.796134,1.983233 2.8813,4.514393 2.8813,7.614865 0,10.905109 -6.559101,13.307975 -12.816176,14.008253 1.013001,0.882032 1.908395,2.611346 1.908395,5.262785 0,3.792732 -0.03474,6.85044 -0.03474,7.78058 0,0.761755 0.505162,1.641114 1.929775,1.368486 11.145665,-3.757987 19.17749,-14.395813 19.17749,-26.931342 0,-15.678767 -12.567603,-28.3880299 -28.067291,-28.3880299 -15.494341,0 -28.0592708,12.7065899 -28.0592708,28.3880299 0,12.540875 8.0398428,23.181374 19.2015438,26.934015 1.395212,0.261936 1.905721,-0.614749 1.905721,-1.371159 z"></path>
      <path fill="none" stroke="#000000" stroke-linecap="round" stroke-linejoin="round" stroke-miterlimit="10" stroke-width="2" d="m 16.289268,48.089327 c 2.56858,0.780462 3.58158,1.635766 4.789693,3.661764 1.205444,2.025998 2.619366,4.287204 7.932933,2.998904"></path>
    </g>
  </symbol>

  <symbol fill="currentColor" version="1.1" id="yamaps" xmlns="http://www.w3.org/2000/svg" xmlns:xlink="http://www.w3.org/1999/xlink" x="0px" y="0px" xml:space="preserve" viewBox="0 0 512 512">
    <g>
      <g>
        <g>
          <path d="M256,0C148.341,0,60.754,87.586,60.755,195.245c0,56.66,16.898,115.289,50.225,174.26
				c28.99,51.297,65.23,93.243,90.526,119.398C215.912,503.797,235.265,512,256,512c20.735,0,40.088-8.203,54.494-23.098
				c25.296-26.156,61.536-68.101,90.526-119.398c33.327-58.971,50.225-117.6,50.225-174.26C451.245,87.586,363.658,0,256,0z
				 M288.632,467.755c-8.624,8.917-20.212,13.828-32.63,13.828c-12.418,0-24.006-4.911-32.631-13.828
				c-49.372-51.047-132.198-154.33-132.198-272.51c0-90.886,73.941-164.828,164.828-164.828c90.885,0,164.828,73.941,164.83,164.828
				C420.83,313.426,338.003,416.708,288.632,467.755z"></path>
          <path d="M256,89.691c-58.203,0-105.554,47.352-105.554,105.555c0,58.202,47.351,105.554,105.554,105.554
				s105.554-47.352,105.554-105.555C361.554,137.043,314.203,89.691,256,89.691z M256,270.381c-41.43,0-75.136-33.706-75.136-75.136
				c0-41.43,33.706-75.136,75.136-75.136c41.43,0,75.136,33.706,75.136,75.136C331.136,236.675,297.43,270.381,256,270.381z"></path>
        </g>
      </g>
    </g>
    <g></g>
    <g></g>
    <g></g>
    <g></g>
    <g></g>
    <g></g>
    <g></g>
    <g></g>
    <g></g>
    <g></g>
    <g></g>
    <g></g>
    <g></g>
    <g></g>
    <g></g>
  </symbol>

    <symbol version="1.1" xmlns="http://www.w3.org/2000/svg" xmlns:xlink="http://www.w3.org/1999/xlink" preserveAspectRatio="xMidYMid" viewBox="0 -18 256 256" id="bem">
    <g>
      <path d="M146.334886,187.820408 L255.168179,187.820408 L255.168179,219.167347 L146.334886,219.167347 L146.334886,187.820408 Z" fill="#010101"></path>
      <path d="M130.075454,187.820408 L130.075454,130.873469 L78.9369188,130.873469 L78.9369188,187.820408 L130.075454,187.820408" fill="#F7B334"></path>
      <path d="M108.046547,62.1714286 L66.0867227,62.1714286 L34.0923569,0 L0.2622489,0 L0.2622489,187.820408 L79.1991677,187.820408 L79.1991677,130.873469 L146.072637,130.873469 L146.072637,100.04898 C146.072637,78.6285714 130.599952,62.1714286 108.046547,62.1714286 L108.046547,62.1714286 Z M120.634494,113.110204 L109.095542,113.110204 L95.9830972,110.236735 L95.9830972,107.363265 L120.634494,107.363265 L120.634494,113.110204 L120.634494,113.110204 Z" fill="#010101"></path>
    </g>
  </symbol>

      <symbol fill="currentColor" version="1.1" id="flex" xmlns="http://www.w3.org/2000/svg" xmlns:xlink="http://www.w3.org/1999/xlink" x="0px" y="0px" xml:space="preserve" viewBox="0 0 491.52 491.52">
    <g>
      <g>
        <path d="M491.52,419.84V0H0v419.84h153.6v51.2h-40.96v20.48h266.24v-20.48h-40.96v-51.2H491.52z M20.48,20.48h450.56v327.68H20.48
			V20.48z M317.44,471.04H174.08v-51.2h143.36V471.04z M20.48,399.36v-30.72h450.56v30.72H20.48z"></path>
      </g>
    </g>
    <g>
      <g>
        <path d="M40.96,40.96v153.6h194.56V40.96H40.96z M195.037,61.44l-56.797,43.434L81.442,61.44H195.037z M61.44,71.917
			l59.949,45.843L61.44,163.603V71.917z M81.442,174.08l56.797-43.434l56.797,43.434H81.442z M215.04,163.603l-59.949-45.843
			l59.949-45.843V163.603z"></path>
      </g>
    </g>
    <g>
      <g>
        <path d="M256,40.96v153.6h194.56V40.96H256z M410.078,61.44l-56.797,43.434L296.482,61.44H410.078z M276.48,71.917l59.949,45.843
			l-59.949,45.843V71.917z M296.482,174.08l56.798-43.434l56.797,43.434H296.482z M430.08,163.603l-59.949-45.843l59.949-45.843
			V163.603z"></path>
      </g>
    </g>
    <g>
      <g>
        <path d="M40.96,215.04v112.64h409.6V215.04H40.96z M430.08,307.2H61.44v-71.68h368.64V307.2z"></path>
      </g>
    </g>
    <g></g>
    <g></g>
    <g></g>
    <g></g>
    <g></g>
    <g></g>
    <g></g>
    <g></g>
    <g></g>
    <g></g>
    <g></g>
    <g></g>
    <g></g>
    <g></g>
    <g></g>
  </symbol>
  
  <symbol fill="currentColor" version="1.1" id="adaptive" xmlns="http://www.w3.org/2000/svg" xmlns:xlink="http://www.w3.org/1999/xlink" x="0px" y="0px" xml:space="preserve" viewBox="0 0 459.359 459.359">
    <g>
      <path d="M162.152,45.256h242.922v155.985c1.209-0.106,2.381-0.362,3.605-0.362
		c10.193,0,19.748,3.938,27.026,10.998c0.023-0.437,0.135-0.857,0.135-1.308V44.01c0-16.285-13.243-29.521-29.527-29.521H160.912
		c-16.285,0-29.527,13.235-29.527,29.521v51.618h30.768V45.256z"></path>
      <path d="M226.788,233.405l21.16-21.137c0.052-0.06,0.12-0.091,0.174-0.135v-61.67
		c0-17.518-14.249-31.76-31.767-31.76H109.767c-17.518,0-31.766,14.242-31.766,31.76v43.446h14.774
		c6.009,0,11.621,1.503,16.691,3.981l0.3-48.42h107.588v99.904C219.224,243.424,222.334,237.851,226.788,233.405z"></path>
      <path d="M131.167,330.469v11.057h62.827v-11.057v-17.863c0-5.018,1.052-9.779,2.793-14.182h-65.62V330.469z
		 M163.061,307.619c5.467,0,9.915,4.432,9.915,9.915c0,5.484-4.447,9.93-9.915,9.93c-5.469,0-9.916-4.445-9.916-9.93
		C153.145,312.05,157.593,307.619,163.061,307.619z"></path>
      <path d="M92.775,213.139H19.164C8.593,213.139,0,221.732,0,232.294v139.473
		c0,10.561,8.593,19.154,19.164,19.154h73.612c10.568,0,19.162-8.593,19.162-19.154V232.294
		C111.937,221.732,103.344,213.139,92.775,213.139z M55.977,384.101c-4.506,0-8.143-3.65-8.143-8.143
		c0-4.492,3.637-8.127,8.143-8.127c4.476,0,8.113,3.635,8.113,8.127C64.09,380.451,60.453,384.101,55.977,384.101z M88.862,361.026
		H23.075V236.214h65.787V361.026z"></path>
      <path d="M451.24,304.495h-18.065c-2.261-8.924-5.784-17.322-10.396-25.029l12.807-12.814
		c3.155-3.14,3.169-8.308,0-11.478l-21.168-21.152c-3.29-3.32-8.593-2.914-11.478,0c-13.07,13.069,0.271-0.271-12.799,12.8
		c-0.023,0-0.039-0.015-0.06-0.03c-7.655-4.567-16-8.052-24.855-10.321c-0.031-0.015-0.06-0.015-0.091-0.03v-18.058
		c0-4.477-3.635-8.111-8.12-8.111h-29.912c-4.484,0-8.12,3.635-8.12,8.111v18.058c-0.031,0.016-0.06,0.016-0.091,0.03
		c-8.854,2.27-17.2,5.754-24.855,10.321c-0.022,0.016-0.037,0.03-0.06,0.03c-13.017-13.011,0.323,0.33-12.799-12.8
		c-2.336-2.358-6.211-3.335-9.982-0.991c-2.05,1.262-20.957,20.446-22.663,22.144c-3.169,3.17-3.155,8.338,0,11.478l12.807,12.814
		c-4.612,7.707-8.135,16.105-10.396,25.029H232.88c-4.484,0-8.12,3.635-8.12,8.111v29.926c0,4.477,3.635,8.113,8.12,8.113h18.064
		c2.262,8.924,5.777,17.307,10.383,25.014c0,0,0.006,0,0.006,0.014l-12.799,12.801c-1.524,1.517-2.374,3.591-2.374,5.738
		c0,2.148,0.857,4.221,2.374,5.739l21.167,21.152c1.585,1.577,3.666,2.372,5.738,2.372c2.074,0,4.155-0.795,5.739-2.372
		l12.792-12.801c7.677,4.597,16.045,8.099,24.923,10.366c0.031,0.015,0.06,0.015,0.091,0.03v18.058c0,4.477,3.635,8.113,8.12,8.113
		h29.912c4.484,0,8.12-3.637,8.12-8.113v-18.058c0.031-0.016,0.06-0.016,0.091-0.03c8.878-2.268,17.247-5.77,24.923-10.366
		l12.792,12.801c3.178,3.153,8.301,3.153,11.478,0l21.168-21.152c3.169-3.171,3.155-8.338,0-11.478l-12.799-12.801
		c0-0.014,0.006-0.014,0.006-0.014c4.605-7.707,8.121-16.09,10.382-25.014h18.065c4.484,0,8.119-3.637,8.119-8.113v-29.926
		C459.359,308.129,455.725,304.495,451.24,304.495z M342.06,390.907c-34.921,0-63.33-28.409-63.33-63.337
		c0-34.929,28.409-63.337,63.33-63.337c34.92,0,63.33,28.408,63.33,63.337C405.39,362.498,376.98,390.907,342.06,390.907z"></path>
      <path d="M342.06,297.644c-16.518,0-29.918,13.4-29.918,29.926c0,16.525,13.401,29.926,29.918,29.926
		c16.517,0,29.918-13.401,29.918-29.926C371.978,311.044,358.577,297.644,342.06,297.644z"></path>
    </g>
    <g></g>
    <g></g>
    <g></g>
    <g></g>
    <g></g>
    <g></g>
    <g></g>
    <g></g>
    <g></g>
    <g></g>
    <g></g>
    <g></g>
    <g></g>
    <g></g>
    <g></g>
  </symbol>

  <symbol xmlns="http://www.w3.org/2000/svg" xmlns:xlink="http://www.w3.org/1999/xlink" aria-label="Google Maps" role="img" viewBox="0 0 512 512" id="google-maps">
    <rect id="a" width="512" height="512" x="0" y="0" rx="15%" fill="#fff"></rect>
    <clipPath id="b">
      <use xlink:href="#a"></use>
    </clipPath>
    <g clip-path="url(#b)">
      <path fill="#35a85b" d="M0 512V0h512z"></path>
      <path fill="#5881ca" d="M256 288L32 512h448z"></path>
      <path fill="#c1c0be" d="M288 256L512 32v448z"></path>
      <path stroke="#fadb2a" stroke-width="71" d="M0 512L512 0"></path>
      <path fill="none" stroke="#f2f2f2" stroke-width="22" d="M175 173h50a50 54 0 1 1-15-41"></path>
      <path fill="#de3738" d="M353 85a70 70 0 0 1 140 0c0 70-70 70-70 157 0-87-70-87-70-157"></path>
      <circle cx="423" cy="89" r="25" fill="#7d2426"></circle>
    </g>
  </symbol>

  <symbol version="1.1" xmlns="http://www.w3.org/2000/svg" xmlns:xlink="http://www.w3.org/1999/xlink" preserveAspectRatio="xMidYMid" viewBox="0 0 256 256" id="bootstrap">
    <g>
      <path d="M0,222.991225 C0,241.223474 14.7785318,256 33.0087747,256 L222.991225,256 C241.223474,256 256,241.221468 256,222.991225 L256,33.0087747 C256,14.7765263 241.221468,0 222.991225,0 L33.0087747,0 C14.7765263,0 0,14.7785318 0,33.0087747 L0,222.991225 Z" fill="#563D7C"></path>
      <path d="M106.157563,113.238095 L106.157563,76.9845938 L138.069328,76.9845938 C141.108559,76.9845938 144.039202,77.2378593 146.861345,77.7443978 C149.683488,78.2509362 152.179961,79.1554557 154.35084,80.4579832 C156.52172,81.7605107 158.258397,83.5695496 159.560924,85.8851541 C160.863452,88.2007585 161.514706,91.1675823 161.514706,94.7857143 C161.514706,101.298352 159.560944,106.001853 155.653361,108.896359 C151.745779,111.790864 146.752832,113.238095 140.67437,113.238095 L106.157563,113.238095 L106.157563,113.238095 Z M72.07493,50.5 L72.07493,205.5 L147.186975,205.5 C154.133788,205.5 160.899594,204.631661 167.484594,202.894958 C174.069594,201.158255 179.93088,198.480877 185.068627,194.862745 C190.206375,191.244613 194.294803,186.577293 197.334034,180.860644 C200.373264,175.143996 201.892857,168.37819 201.892857,160.563025 C201.892857,150.866431 199.541107,142.581033 194.837535,135.706583 C190.133963,128.832132 183.00635,124.020088 173.454482,121.270308 C180.401295,117.941627 185.647508,113.672295 189.193277,108.462185 C192.739047,103.252075 194.511905,96.7395349 194.511905,88.9243697 C194.511905,81.6881057 193.317939,75.6097352 190.929972,70.6890756 C188.542005,65.7684161 185.177193,61.8247114 180.835434,58.8578431 C176.493676,55.8909749 171.283644,53.756309 165.205182,52.4537815 C159.12672,51.151254 152.397096,50.5 145.016106,50.5 L72.07493,50.5 L72.07493,50.5 Z M106.157563,179.015406 L106.157563,136.466387 L143.279412,136.466387 C150.660401,136.466387 156.594049,138.166883 161.080532,141.567927 C165.567016,144.968971 167.810224,150.649353 167.810224,158.609244 C167.810224,162.661552 167.122789,165.990183 165.747899,168.595238 C164.373009,171.200293 162.527789,173.262597 160.212185,174.782213 C157.89658,176.301828 155.219203,177.387252 152.179972,178.038515 C149.140741,178.689779 145.956833,179.015406 142.628151,179.015406 L106.157563,179.015406 L106.157563,179.015406 Z" fill="#FFFFFF"></path>
    </g>
  </symbol>

    <symbol version="1.1" xmlns="http://www.w3.org/2000/svg" xmlns:xlink="http://www.w3.org/1999/xlink" preserveAspectRatio="xMidYMid" viewBox="-17 0 290 290" id="webpack">
    <g>
      <polygon fill="#FFFFFF" points="128 0.0483018868 256 72.4528302 256 217.310189 128 289.714717 0 217.310189 0 72.4528302"></polygon>
      <path d="M233.153208,212.286792 L132.250566,269.427925 L132.250566,224.990189 L195.139623,190.357736 L233.153208,212.286792 Z M240.060377,206.055849 L240.060377,86.6535849 L203.157736,107.954717 L203.157736,184.754717 L240.060377,206.055849 Z M22.4603774,212.286792 L123.363019,269.379623 L123.363019,224.941887 L60.4739623,190.357736 L22.4603774,212.286792 L22.4603774,212.286792 Z M15.5532075,206.055849 L15.5532075,86.6535849 L52.4558491,107.954717 L52.4558491,184.754717 L15.5532075,206.055849 L15.5532075,206.055849 Z M19.8520755,78.925283 L123.363019,20.3833962 L123.363019,63.3720755 L57.0445283,99.84 L56.5132075,100.129811 L19.8520755,78.925283 L19.8520755,78.925283 Z M235.713208,78.925283 L132.250566,20.3833962 L132.250566,63.3720755 L198.520755,99.8883019 L199.052075,100.178113 L235.713208,78.925283 L235.713208,78.925283 Z" fill="#8ED6FB"></path>
      <path d="M123.363019,214.846792 L61.3433962,180.697358 L61.3433962,113.123019 L123.363019,148.914717 L123.363019,214.846792 L123.363019,214.846792 Z M132.250566,214.846792 L194.270189,180.74566 L194.270189,113.123019 L132.250566,148.914717 L132.250566,214.846792 Z M65.4973585,105.298113 L127.806792,71.0520755 L190.067925,105.298113 L127.806792,141.234717 L65.4973585,105.298113 L65.4973585,105.298113 Z" fill="#1C78C0"></path>
    </g>
  </symbol>

  <symbol id="star" xmlns="http://www.w3.org/2000/svg" viewBox="0 0 72 72">
    <g id="color">
      <polygon fill="#FCEA2B" stroke="none" points="16.9962,45.4792 19.7912,54.0814 28.8361,54.0814 21.5186,59.3978 24.3136,68 16.9962,62.6836 9.6787,68 12.4737,59.3978 5.1562,54.0814 14.2011,54.0814"></polygon>
    </g>
    <g id="hair"></g>
    <g id="skin"></g>
    <g id="skin-shadow"></g>
    <g id="line">
      <polygon fill="none" stroke="#000000" stroke-linecap="round" stroke-linejoin="round" stroke-miterlimit="10" stroke-width="2" points="16.9962,45.4792 19.7912,54.0814 28.8361,54.0814 21.5186,59.3978 24.3136,68 16.9962,62.6836 9.6787,68 12.4737,59.3978 5.1562,54.0814 14.2011,54.0814"></polygon>
      <line x1="51.3836" x2="22.0786" y1="13.7727" y2="43.0776" fill="none" stroke="#000000" stroke-linecap="round" stroke-linejoin="round" stroke-miterlimit="10" stroke-width="2"></line>
      <line x1="32.125" x2="66.8438" y1="38.7188" y2="4" fill="none" stroke="#000000" stroke-linecap="round" stroke-linejoin="round" stroke-miterlimit="10" stroke-width="2"></line>
      <line x1="34.2307" x2="57.9976" y1="47.757" y2="23.9901" fill="none" stroke="#000000" stroke-linecap="round" stroke-linejoin="round" stroke-miterlimit="10" stroke-width="2"></line>
      <line x1="26.796" x2="48.421" y1="49.4835" y2="27.8585" fill="none" stroke="#000000" stroke-linecap="round" stroke-linejoin="round" stroke-miterlimit="10" stroke-width="2"></line>
    </g>
  </symbol>

  <symbol xmlns="http://www.w3.org/2000/svg" xmlns:xlink="http://www.w3.org/1999/xlink" aria-hidden="true" role="img" preserveAspectRatio="xMidYMid meet" viewBox="0 0 128 128" id="satellite">
    <path d="M51.24 75.33S3.98 57.62 4 57.25L5.12 23.6c.02-.45.47-.75.89-.59l46.35 17.12c.38.14.62.51.61.91l-1.13 33.9c-.01.3-.31.5-.6.39z" fill="#2f7889"></path>
    <path d="M9.29 59.89l41.95 15.44c.28.11.59-.09.6-.4l1.13-33.9l-7.57-2.85L9.29 59.89z" fill="#37474f"></path>
    <path d="M51.24 75.33L4.55 58.08a.854.854 0 0 1-.55-.82L5.12 23.6c.02-.45.47-.75.89-.59l46.35 17.12c.38.14.62.51.61.91l-1.13 33.9c-.01.3-.31.5-.6.39z" fill="none" stroke="#9dd4e0" stroke-width="2.042" stroke-miterlimit="10"></path>
    <path fill="none" stroke="#9dd4e0" stroke-width="1.021" stroke-miterlimit="10" d="M52.41 57.96L4.57 40.27"></path>
    <path fill="none" stroke="#9dd4e0" stroke-width="1.021" stroke-miterlimit="10" d="M29.54 32.71l-1.17 34.02"></path>
    <path fill="none" stroke="#9dd4e0" stroke-width="1.021" stroke-miterlimit="10" d="M16.94 27.39l-1.06 35.2"></path>
    <path fill="none" stroke="#9dd4e0" stroke-width="1.021" stroke-miterlimit="10" d="M42.02 35.95l-1.06 35.44"></path>
    <path d="M82.81 38.76l1.46-2.49c.59-1.01 1.82-1.5 2.93-1.13c2.04.68 5.21 2.43 7.46 6.88c2.27 4.49 1.93 8.12 1.37 10.17a2.53 2.53 0 0 1-2.38 1.88l-2.04.04l-8.8-15.35z" fill="#bf8904"></path>
    <path d="M91.15 40.25c-.63.82.08 4.67-.76 5.61c-.42.46-1.01.9-1.58.65l2.29 7.61l2.57-.04a2.51 2.51 0 0 0 2.38-1.88c.55-2.05.9-5.68-1.37-10.17c-.3-.57-2.06-3.71-3.53-1.78z" fill="#875d00"></path>
    <path fill="#ffca28" d="M89.28 41.23L68.9 33.46l-21.19 9.97L53.65 86l22.18-9.48l16.91-13.77z"></path>
    <path fill="#e2a610" d="M89.28 41.22l-21.33 9.92l-14.1 35.25l22.18-9.48l16.91-13.77z"></path>
    <path fill="#bf8904" d="M67.99 51.25l-20.37-7.77l-16.91 13.76l3.46 21.53l20.37 7.76l16.91-13.76z"></path>
    <path d="M93.17 63.12l-21.82 9.67l-3.44 2.85c.01-.14.6-6.87-4.9-15.06c-3.95-5.89-12.89-9.2-12.89-9.2l4.45 35.3l22.17-9.48l16.43-14.08z" fill="#875d00"></path>
    <g>
      <path d="M122.27 105.01S75.01 87.3 75.03 86.93l1.12-33.66c.02-.45.47-.75.89-.59l46.35 17.12c.38.14.62.51.61.91l-1.13 33.9c-.01.31-.31.51-.6.4z" fill="#2f7889"></path>
      <path d="M80.32 89.57l41.95 15.44c.28.11.59-.09.6-.4L124 69.95l-6.99-2.43l-36.69 22.05z" fill="#37474f"></path>
      <path d="M122.27 105.01L75.58 87.76a.858.858 0 0 1-.55-.83l1.12-33.66c.02-.45.47-.75.89-.59l46.35 17.12c.38.14.62.51.61.91l-1.13 33.9c-.01.31-.31.51-.6.4z" fill="none" stroke="#9dd4e0" stroke-width="2.042" stroke-miterlimit="10"></path>
      <path fill="none" stroke="#9dd4e0" stroke-width="1.021" stroke-miterlimit="10" d="M123.44 87.63L75.6 69.95"></path>
      <path fill="none" stroke="#9dd4e0" stroke-width="1.021" stroke-miterlimit="10" d="M100.57 62.39L99.4 96.41"></path>
      <path fill="none" stroke="#9dd4e0" stroke-width="1.021" stroke-miterlimit="10" d="M87.97 57.06l-1.06 35.2"></path>
      <path fill="none" stroke="#9dd4e0" stroke-width="1.021" stroke-miterlimit="10" d="M113.05 65.63l-1.06 35.44"></path>
    </g>
    <path d="M75.03 39.47c0-1.57-2.67-2.85-5.96-2.85s-5.96 1.27-5.96 2.85v2.23c0 1.57 2.67 2.85 5.96 2.85s5.96-1.27 5.96-2.85v-2.23z" fill="#e2a610"></path>
    <ellipse cx="69.07" cy="39.47" rx="5.96" ry="2.85" fill="#e2a610"></ellipse>
    <ellipse cx="69.07" cy="39.27" rx="5.01" ry="2.2" fill="#ffca28"></ellipse>
    <path d="M70.02 39.3s-.19.4-.94.4s-.94-.4-.94-.4s.27-10.28.35-10.95c.08-.67 1.02-.65 1.05 0c.02.65.48 10.95.48 10.95z" fill="#e2a610"></path>
    <path d="M75.03 39.47s-.37 1.63-3.68 2.29c-2.43.48-4.17.29-4.59 1.56c-.32.96 1.98 1.75 5.23.87c2.93-.8 3.04-2.26 3.04-2.48v-2.24z" fill="#bf8904"></path>
    <g>
      <path d="M53.94 92.43L36.62 46.49c7.54-2.84 21.56 3.62 26.34 16.3s-1.48 26.8-9.02 29.64z" fill="#9dd4e0"></path>
      <path d="M51.7 86.49l2.24 5.94c7.54-2.84 13.81-16.95 9.02-29.64c-.4-1.06-.87-2.08-1.4-3.06c1.9 8.89-1.6 19.92-9.86 26.76z" fill="#2f7889"></path>
      <ellipse transform="rotate(-20.653 45.232 69.563)" cx="45.23" cy="69.56" rx="13.25" ry="23.6" fill="#f5f5f5"></ellipse>
      <path d="M37.04 68.06c-3.51-6.56-5.78-16.39-1.43-20.05c4.59-3.86 11.08.68 14.34 3.57c1.81 1.6 2.76 2.85 3.7 4.13c5.36 7.3 9.97 21.66 3.79 26.91c-4.31 3.66-15.15-4.74-20.4-14.56z" fill="#bdbdbd"></path>
      <path d="M33.52 73.89c-4.31-11.44-2.57-23.13 3.81-25.53s15.4 5.23 19.71 16.67s2.57 23.13-3.81 25.53s-15.4-5.23-19.71-16.67m-1.34.51c4.78 12.69 14.77 20.67 22.31 17.82c7.54-2.84 9.78-15.43 4.99-28.12S44.71 43.44 37.17 46.28c-7.54 2.84-9.77 15.43-4.99 28.12z" fill="#6392a5"></path>
      <path fill="none" stroke="#6392a5" stroke-width="1.5" stroke-linecap="round" stroke-miterlimit="10" d="M26.72 76.3l26.06-11.54"></path>
      <path fill="none" stroke="#6392a5" stroke-width="1.5" stroke-linecap="round" stroke-miterlimit="10" d="M26.72 76.3l15.19-17.01"></path>
      <path fill="none" stroke="#6392a5" stroke-width="1.5" stroke-linecap="round" stroke-miterlimit="10" d="M26.72 76.3l23.25 3.54"></path>
      <path d="M28.4 74.49l.79 2.08a.85.85 0 0 1-.5 1.1l-4.13 1.56a.85.85 0 0 1-1.1-.5l-.79-2.08a.85.85 0 0 1 .5-1.1L27.3 74a.85.85 0 0 1 1.1.49z" fill="#6392a5"></path>
    </g>
  </symbol>

  <symbol fill="currentColor" role="img" xmlns="http://www.w3.org/2000/svg" viewBox="0 0 24 24" id="habr">
    <path d="m1.14 9.295.17.253c-.34-.01-.696-.043-.764-.189 0-.007.002-.014.004-.021.19-.05.353-.053.59-.043zm1.806.77.082.25-.192.008.046-.256a.685.685 0 0 0 .064-.003zM3.6 11.89c-.17.156-.301.26-.402.497-.14-.115-.213-.343-.258-.598-.05-.278-.066-.587-.104-.818l.012-.118.197-.014.502.95.053.1zm-.254-2.342a60.527 60.527 0 0 1 .077-.512l.065-.004c-.048.172-.096.344-.142.516zm-.137-2.322.9.244a1.975 1.975 0 0 0-.004.04c-.419.31-.806.446-1.014 1.006L3.17 7.27l.039-.043zm.84-1.29c-.058.58.024.836.125 1.196.16.114.224.183.172.352-.27-.134-.556-.274-.97-.252a2.799 2.799 0 0 1-.03-.035c.116-.457.342-.738.517-1.1l.187-.162zm1.294-.772.039-.003c-.124.428-.174 1.415-.391 1.807-.513-.243-.503-1.296.071-1.712l.28-.092zm-.478 3.17.432.469c-.17.522-.491.915-.627 1.52l-.255-.02c-.218-.609.327-1.601.42-2.045l.4.046c.05.125.098.25.147.376l-.517-.347zM6.047 5.16c-.044.507.068.77.098 1.162-.254.13-.509.258-.763.387a5.262 5.262 0 0 1 .373-1.527l.292-.022zm.296-.77.057-.004-.086.247-.169.011.13-.153.068-.101zM6.4 6.755l-.764.47c.016-.284.378-.667.681-.773l.07.038.013.265zm.51-1.778c-.047.262-.093.523-.138.785l-.143.09-.076.083c-.138-.194-.173-.67-.143-1.032l.5.074zm.508-.59c0 .01-.002.018-.003.026L7.22 4.6c-.13.05-.146.048-.31.042.021-.085.045-.17.068-.255h.44zm.51-1.032L7.7 3.87l-.79-.057.003-.042c.325-.15.61-.328 1.014-.417zm-.412 1.34.084-.05.073.258-.255-.05.098-.159zm.666.763c-.303.118-.722.085-.965.22a77.912 77.912 0 0 0-.053-.31l.158-.207c.257.1.514.202.77.303l.09-.006zm-.651.464-.346.013c-.008-.036-.014-.072-.021-.109.243-.099.651-.108 1.018-.149l-.387.213-.264.032zm.905 0c-.291.073-.57.33-.761.53-.037-.234.412-.646.627-.775.095.085.105.076.134.245zm.51-3.083-.004.04-.306.185-.454.033.004-.04.76-.218zm-.412.774-.098-.145c.23-.193.737-.087 1.019-.058l-.921.203zm2.278-.76c.425.035.814.135 1.11.32L12 3.168l-.047.066-.407.12c-.245-.034-.49-.07-.734-.105L9.2 3.02l.004-.033a5.375 5.375 0 0 1 1.608-.133zm1.693-.136-.09.122a1.23 1.23 0 0 1-.67-.258l.764.097-.004.039zm1.356.954.211-.08.219.188c-.03.215-.237.391-.396.6l-.122.008c-.332-.55-.751-1.151-1.486-1.363l-.032-.065.297-.12c.499.174.915.438 1.378.59.06.145.041.096-.07.242zm.614 1.223-.058-.057-.126.009.21-.2-.026.248zm.225 2.848c.344.298.432.73.289 1.29-.148-.332-.295-.665-.444-.997.05-.074.097-.148.146-.222.003-.024.005-.048.009-.071zm.1-2.32-.004.048-.181.207-.07-.137c.109-.195.03-.09.173-.11l.082-.008zm.212-.003.806.299a1.034 1.034 0 0 1-.007.08c-.068.047-.136.092-.204.137l-.807-.298.007-.081.205-.137zm1.57 1.033-.447-.297-.062-.12c.194-.12.166-.114.371-.074.045.164.092.327.138.49zm.254-.098-.09.098c-.108-.056-.127-.127-.164-.259l.233.102.021.059zm-.19-.739-.064.005c.07-.067.14-.134.212-.2-.05.065-.1.13-.148.195zm1.209 1.298-.125.055a230.14 230.14 0 0 1-.681-.383 98.74 98.74 0 0 1-.213-.29c.353-.26.366.042.699.207l.32.411zm.254.228-.254-.093.153-.08.101.173zm-.31.416c.092.185.092.133.31.105L17.718 8l-.373-.712.005-.044c.275-.059.363.04.632.08l.103.166-.285.067zm.056.463.509-.278c-.102.23-.235.348-.392.516l-.117-.238zm1.018.985c-.138.119-.228.157-.489.179l.21.023-.004.037-.717.304-.018-.92.494-.585.09-.043.434 1.005zm-.255-1.412c1.406-.392 1.134.354.507.923-.17-.307-.339-.615-.507-.923zm1.273.149c-.518 2.434-.618 2.567-2.45 3.613a3.302 3.302 0 0 0-.096-.145l.065-.272c1.195-.34 1.874-.966 1.803-2.383l.599-.77.079-.043zm.062 0c-.02-.084-.04-.168-.062-.252l.19-.006-.128.258zm-3.117 2.367.018-.269.016-.23.176-.059c.009 0 .017-.002.025-.003.05.305 0 .53-.1.775-.086-.055-.103-.078-.135-.214zm-1.018 2.258.004-.045.334-.799.07-.168.588.04c.009.044.015.087.018.128.026.304-.079.547-.187.864l-.827-.02zm.255 1.036.007-.4.01-.1.43.032.062-.005c-.099.163-.197.326-.294.49l-.215-.017zm-.252-1.67.026-.013.203-.105.023-.002-.03.107-.119.409-.106-.364.003-.032zm-.397 1.285-.115-.115c.112.078.039.002.115.115zm-.624-.307c.143-.09.298-.062.51-.06l-.063.207c-.175.07-.2.044-.397.023l-.05-.17zm.312.966.197.466c-.152.103-.305.205-.457.309-.136-.187.012-.71.26-.775zm-.503-1.62-.064.005.084-.191-.02.187zm.733.072-.033-.021.112-.236.037-.001.106.248-.222.01zm1.763-3.355-.014-.087c.067-.082.11-.133.225-.17l.03.152c-.05.033-.1.065-.149.099l-.092.006zm-.014.63c-.046.061-.128.095-.186.144l-.069-1.29.255 1.146zm-.467 1.73c.168-.094.192-.007.212.22h-.509l.009-.08.288-.14zm-.25-.713.115-.098.093.166-.043.092-.212-.025.047-.135zm-.047.684-.265.25-.173-.029-.07.007c.04-.079.082-.158.123-.236l.385.008zm-.96-.147c-.106-.074-.03-.064-.05-.12l.05.12zm.802-1.152-.86-.446c.04-.59.112-1.268.054-1.876.663.24 1.258 1.319.806 2.322zm-.605 0c.211.112.2.214.493.304.051.191-.027.267-.149.47l-.312-.012c-.064-.34.006-.535-.032-.762zm.058 1.669c-.107-.074-.03-.064-.05-.12l.05.12zm1.723-2.484.003-.048.23-.169c.04.264.025.704-.035 1.032-.136-.106-.161-.554-.198-.815zm0 .815c.052-.086.104-.172.154-.258l-.09.254-.064.004zm1.485-.771.043-.003c.012.989-.598 1.169-1.4 1.54l-.128.009.5-1.036.985-.51zm-1.51-1.932c.008.026.017.051.024.077l-.063.046-.191-.258.23.135zm-.23.43.007-.045a3.35 3.35 0 0 1 .056-.004l.192.258c-.148-.07-.172-.088-.255-.21zm.254.66-.343.323-.737-1.07-.956-.83.21-.164c.463.2 1.273.581 1.436 1.057.053.155-.13.283-.006.412.148.154.296.044.397.271zm-2.148 1.613.078.031.034.744-.119-.028c-.112-.083-.19-.467-.088-.634l.095-.113zm-.564 1.294.082-.003.085.202-.13.05-.125.006c.03-.085.06-.17.088-.255zm-.232 4.126-.11-.377c.157-.045.313-.09.47-.137l.04-.002a.527.527 0 0 0-.005.035l-.395.48zm-.365-1.032c.047-.152.08-.175.165-.259l.07.028.02.066-.157.154-.098.01zm.12.258-.12-.132.255-.126-.066.253-.069.005zm-.268 1.17c-.036-.028-.07-.057-.106-.087l.078-.005.393-.304.038.31-.301.206-.102-.12zm.02 2.956c-.613.026-.98-.13-1.48-.174l-.573-1.133-.11-.114c.962-.114 1.567-.578 2.28-.899.252.24.823 1.462.32 2.003-.12.185-.255.204-.438.317zm-2.632-1.273.23-.015c.347.233.583.65.749 1.033l-1.019-.295c.076-.258.108-.52.04-.723zm-.732-.974L11.691 16l1.804.176.032.091c-.537.242-1.148.446-1.764.758-.667.053-.828-.196-1.29-.36l.071-.334zm-.071 1.216.023-.224.439-.033c.036.195.074.304.02.516l-.482-.26zm-.51.404.171-.094c.21-.139.367.046.593.119l-.09.088-.673-.113zm.495-.403a15.96 15.96 0 0 1-.166-.075l-.074-.183.255.016-.015.242zm-.749 0 .255.219c0 .135-.012.12-.043.297l-.212-.516zm-.66-.967c.239-.073.557-.057.915-.065l-.333.258-.685-.067.103-.126zM8.436 3.648c.473-.452 1.659-.317 1.956-.03l.08-.007c-.395.369-1.007.411-1.383.776-.295-.196-.539-.322-.653-.739zm2.6.739.2.227c-.178.01-.365.021-.552.037-.421.036-.837.099-1.128.25l-.038.002a51.163 51.163 0 0 1-.063-.099 3.644 3.644 0 0 1 1.544-.414l.037-.003zm.992-1.29c.329.33.82.526.99 1.032-.69-.321-1.752-.316-2.29-.827.474.101.878.063 1.3-.205zm.227 1.806.944.13.074-.006-.757.65c-.12-.239-.148-.563-.261-.774zm1.213 1.104-.195-.03.254-.042-.06.072zm-.195-.617.233-.229.021.258-.169-.037-.085.008zm.462 8.54-.112.005-.096-.09.074-.097.18-.07-.046.253zm-.203.472c.03-.036.062-.072.094-.108l.008-.1.148.235-.255.023.005-.05zm-.101.824-.158-.19.509-.068-.243.25-.108.008zm.096.774-.509-.061.36-.197.15.258zm-.357-.728.103.098-.369.094-.395.02.55-.258.111.046zM11.746 4.129c.297.008.611.083.763.258-.205-.02-.574.013-.667-.145l-.096-.113zm.258 1.032c.145.127.196.277.17.516-.224-.077-.166-.322-.17-.516zm.25 1.627.009-.044c.507-.11.616.066.385.224-.2-.028-.29-.103-.393-.18zm.653 6.631.111.028a1.49 1.49 0 0 0-.004.036l-.25.194.104-.255.039-.003zm-.14-6.294.19-.157.061.258-.254-.056.002-.045zm.76 6.9-.615.161-.148.007c0-.008.002-.017.004-.025.23-.046.378-.122.514-.233l.216.04.03.05zm-.439-.606-.07-.143.175-.115.08.043-.1.208-.085.007zm-1.597 1.785.303-.236.938.08.032.07-.634.366c-.235-.039-.438-.143-.56-.286l-.08.006zm-.471.022.47.258-.763-.135c.098-.04.195-.082.293-.123zm-.038.527a7.12 7.12 0 0 0-.003.062l-.145.08-.107.014.004-.062c.111-.147.092-.098.25-.094zM9.782 5.25a6.022 6.022 0 0 0-.073-.077c.253-.138.652-.204 1.044-.235.323-.027.641-.03.869-.035l.124.774c-.333-.036-.65-.08-.993-.095a5.2 5.2 0 0 0-.888.032 41.055 41.055 0 0 0-.083-.364zm.374 10.355.062.11-.06.231-.703.054c.075-.23.187-.341.308-.516l.393.121zm-.868-.895c-.32-.018-.758-.252-.852-.516l1.019.259-.167.257zm.358-.014-.191.014.006-.062.212-.196c-.01.081-.018.162-.027.244zm-.7-9.437.31-.098.199.25-.21.008-.3-.16zm-.004 11.08c-.017.056-.032.113-.048.17a.884.884 0 0 0-.074.007 92.65 92.65 0 0 0-.129-.258l.255.026-.004.055zm.141-1.113.594.12.032.08-.461.574-.557-.082.392-.692zm4.444-8.088.115-.169.042-.001.32.08.032.046-.357.132a41.52 41.52 0 0 0-.152-.088zm.689-.834-.18-.11c.183.067.078-.009.18.11zm-.058 1.18-.122-.104.255-.154-.133.258zm-.122 1.806.396.098c.107.042.104.053.113.16-.17-.065-.454-.11-.509-.258zm.04-.703.054-.07.161.257-.255-.05.04-.137zm-5.157 8.491.027.068-.343.131-.167.013.004-.035.117-.183c.162-.075.166-.026.362.006zm-.737-12.95c.222.166.28.37.245 1.033-.146-.187-.235-.584-.245-1.032zm.146-.515L8.31 3.8l-.127.009.146-.196zm-.146.258c-.007.062-.012.124-.02.186l-.235-.043.194-.139.06-.004zm0 14.968.126-1.314.892-.235-.938 1.501-.08.048zm.063-3.532.137-.081c.125.148.013.361-.105.516-.098-.092-.109-.15-.083-.359l.05-.076zm-.827-.126.293-.471.47.276c-.16.252-.323.504-.485.756-.146-.13-.236-.321-.278-.56zm0 2.021.47-.428.221.02.073.12c-.02.126-.038.251-.056.376l-.708-.088zm-.763-.35.56-.336.426.067.032.059-.449.39c-.224-.023-.373-.083-.49-.185l-.08.005zm-.075-.499.205-.095.088.019.036.042-.593.197-.17-.06.434-.103zm-.689-.242.15-.363c.278-.036.344.101.553.188l.06.092-.311.213-.253.017-.199-.147zm-.51 1.059.371-.654c.246 0 .276.02.377.15.045.076.006.035-.092.052l-.023.225.386.06c-.076.189-.088.164-.202.284-.38.02-.551-.052-.816-.117zm-.428-.912.647.195.036.077-.415.502-.603-.198.335-.576zM2.46 15.56l.008-.077.361.278.031.074c-.751.58.398 2.47 1.705 1.245l.562.226c-.216.385-.587.537-.978.755-.935.078-2.244-1.449-1.69-2.501zm.872.264.014.175c-.07-.053-.14-.104-.208-.157l-.047-.101.24.083zm1.286 1.096-.465.36c-.916.096-1.287-.538-1.317-1.317l.179-.216.078-.006c.461.363.869.917 1.495 1.1l.03.079zm-.887-3.76c-.083-.06-.088-.09-.13-.192l.174-.662.203-.178.131.192-.378.84zm-.13.223.401-.949.082-.048c.185.326.453.474.534.917l-.604.631a1.223 1.223 0 0 1-.414-.55zm.763.79.51-.497.253.517a95.872 95.872 0 0 0-.763-.02zm1.272-5.215c-.241.515-.562.865-.754 1.364-.084-.453.422-1.104.585-1.504l.078-.045.091.185zm0-1.42c.379-.117.633-.331.904-.571l.115.344-.322.43-.697-.202zm1.273.027-.138.176-.116-.02.002-.028.232-.21.02.082zm-.2-1.112.04-.002.16.337-.06.179c-.233-.122-.224-.267-.14-.514zm-.048 7.481.235.169-.241-.106a1.03 1.03 0 0 1 .006-.063zm-.004.259.252.109a.9.9 0 0 0-.004.03l-.54.377c-.155-.07-.174-.209-.22-.36l.005-.032.507-.124zm-.753-.517.242.098-.13.075-.125.014.013-.187zm-.013-5.16c.306.086.209.028.222.257-.14-.082-.15-.121-.222-.258zm0 4.609.021-.223c.119.083.16.132.234.258a61.01 61.01 0 0 0-.255-.035zm.51-3.223c-.096.123-.092.09-.255.161l.111-.258.143.097zm0-1.038-.16.167c-.16-.09-.085-.054-.013-.221l.095-.037.077.091zm-.021-.439-.234-.168c.18.069.138.027.234.168zm-.489 4.735.255.203c-.13-.003-.2-.031-.255-.203zm.764-.01-.104.01-.089-.164-.062-.08.138-.014c.039.083.077.166.117.248zm-.14-4.778L6.4 8.258c.112.078.038.002.114.115zm.015 4.25-.13-.27.055-.222.032-.002.168.516a37.21 37.21 0 0 0-.125-.022zm-.667 3.003.028.034L5.8 16a.697.697 0 0 1-.418-.516l.481.142zM5.127 16l.255.226c-.163-.072-.173-.069-.255-.226zm.44-2.288.03.223-.215-.258.185.035zm-.252 1.207-.188-.467c.223.085.397.34.51.516l-.322-.049zm.2-4.594.063-.002-.186.258c-.03-.064.007-.125.11-.2l.013-.057zm-.133 2.218-.051.102-.146-.113a116.8 116.8 0 0 1-.058-.123l.2-.022.055.156zM3.6 14.71c.51.332 1.377.64 1.527 1.29A4.234 4.234 0 0 1 3.6 14.71zm1.323-.25.204.25-.509-.258.305.008zm1.864.766-.387-.39.677-.642.087.707-.377.325zm.377.431.067-.168.09-.005.097.258-.254-.085zm.343-.947-.089-.258.185.034-.096.224zm-.343-8.69.002-.023c.084-.02.168-.04.252-.062l-.176.258-.078-.173zm-2.567 5.335-.233-.516c.299.065.25.278.233.516zm-.623.258c-.218-.151-.357-.452-.374-.774.447.105.422.281.51.689l-.136.085zm-.263-1.347c-.325-.307.148-1.535.356-1.818.11-.139.248-.136.43-.19l.121.031c-.306.542-.512 1.28-.585 2.034l-.322-.057zm-.475 4.186.155.261-.139.325-.08.085c.114.016.14-.082.31-.221.33.535.834 1.047 1.39 1.338l-.303.534-.92-.592c-.105-.195.04-.419-.129-.538-.153-.108-.35.048-.506.001l-.432-.396c.127-.284.249-.562.5-.707l.154-.09zm-.88-2.846a6.65 6.65 0 0 1 .149-.764l.034-.003.133.767.07.4c.2.558.402 1.115.604 1.671-.484-.264-.783-.875-.74-1.697-.116.265-.02.682.018.916-.297-.252-.335-.753-.269-1.29zm-.442.265a.941.941 0 0 1-.086-.31 2.031 2.031 0 0 1 .004-.435l.044-.092.197-.195-.111.721-.048.31zm17.722 2.58-.509-.196.494-.061.015.258zm-13.47 4.2.133-.07-.154.257.02-.186zM2.327 9.807l-.217-.02c-.27-.089-.523-.404-.546-.754.413.037.553.233.757.472.002.1.005.201.006.302zm-.03-.021c.03-.557-.395-.905-.947-.89.094-.782.774-1.182 1.38-1.445l.117-.009c-.101.982-.024 1.828-.391 2.678-.271.626-1.232.614-1.18 1.58l.007.08c.137 1.284 1.533 1.545 1.726 2.674-2.07 1.053.453 5.478 2.09 2.879.294.042.555.175.92.047.17-.094.203-.17.269-.366l.585.303.03.074c-.536.416-.914.987-1.49 1.377l.055-.158-.15-.027-.083.045-.075.35c.329.336 1.326-.879 1.618-1.117-.165.577-.573.874-.8 1.402l.07.072c.43-.308.957-1.18 1.037-1.843l.644.107c-.807 1.091-2.88 3.491-3.97 4.132.166-.521.43-.919.564-1.347l-.078.006a14.401 14.401 0 0 0-.07-.072c-.265.522-.702.889-.78 1.593a.688.688 0 0 0 .174.179c1.296-.216 3.46-3.473 4.494-4.363-.28 2.81-1.786 3.248-3.092 4.95 1.187-.592 1.907-2.102 2.922-2.94C7.781 20.91 7.502 23.533 6.8 24l.116-.009c.788-.49.834-2.505 1.097-3.535l.112-1.083 1.125-1.58.082-.045c.126.395.696.824 1.313.709l.443-.186 1.112.416c.146 1.6.09 2.497-.923 3.715 1.035-.529 1.415-2.567 1.07-3.649 2.407.279 2.31-.533 1.854-2.286l.423.007c-.078-.117-.289-.03-.45-.12-.073-.047-.059-.038-.104-.108.572-.645 1.95-.004 1.66 1.067.396-.888-.479-1.678-1.322-1.36.36-.427.796-.778 1.024-1.343l.082-.044 1.98 2.08.117-.009.09-.122c-.63-.746-1.259-1.493-1.887-2.24l.202-.092a.41.41 0 0 1 .349-.121 22.552 22.552 0 0 1-.1-.05c1.011.101 2.303.944 3.358.672.097-.169.102-.26.043-.425 1.124.028 3.146-.348 3.79-.894-1.73.363-3.678.486-5.266.274l-1.407-.165-.079.006.379-.68c1.16-.022 4.202-.051 4.817-.779l-.136-.182-.53-.076a.394.394 0 0 0-.06.197l.42.045c-.912.23-3.452.715-4.281.432-.087-.106-.023-.474-.019-.739a.968.968 0 0 0-.006-.142c1.192-.356 2.077-1.158 2.44-2.368.207-.693.07-1.603.518-2.035.286.025.344.146.554.228-.111-.154-.27-.24-.469-.31l-.373.257c-.341.132-.698-.213-1.277.056-.47-.402-.735-1.037-1.37-1.28l-.065-.11.77-.749c-.252.211-.509.46-.766.71l-.516-.231-.03-.075c.588-.416 1.11-.57 1.779-.438.031.062.064.123.096.185-.031.053-.059.068-.086.083l-.225-.06c.097.057.198.075.299.093l.085-.083.013-.116c-.146-.13-.191-.224-.478-.234l.137-.202c-.328.226-.994.286-1.32.482l.754-.594.09-.121-1.395.832c-.298-.02-.615-.16-.776-.327a39.46 39.46 0 0 0-.077.006l1.656-1.12-.027-.113c-.628.366-1.257.732-1.884 1.099l-.602-.148.056-.541 4.317-3.39.077-.006-.061-.149c-.16-.076-.817.457-1.065.616-.956.613-1.801 1.376-2.741 1.93.388-.493 1.098-.984 1.216-1.702l-.19-.024-.296.252.322-.14c-.208.633-1.15 1.763-1.682 2.121l-.062-.149c.346-.582.687-1.365.527-2.112l-.29-.17-.311.023c.199.079.334.098.48.195.093.724-.263 1.214-.455 1.8l-.082.044c-.128-.237-.12-.351-.383-.394l-.023-.152.18-.244.124-.086c.042.08.044.051.057.188a.388.388 0 0 0 .059-.196l-.147-.066-.389.412c-.325-.217-.683-.445-1.14-.53.259-.537 1.046-1.4.64-2.081-.496-.828-2.189.126-2.809.783a1.231 1.231 0 0 0-.186.244 9.02 9.02 0 0 1 .186-.144c.612-.456 2.241-1.548 2.594-.675.37.487-.339 1.424-.532 1.805-.66-.067-1.35-.13-2.06-.116a7.422 7.422 0 0 0-2.201.354c-.36.119-1.896 1.039-1.955 1.027l-.7-.678-1.464-.735-.008.077-.086.083 1.876 1.588-.286.175c-.772-.585-1.304-.94-2.453-1.239l-.194.015c.671.462 1.347.885 2.022 1.309l.135.182c-.482.203-.686.625-1.093.887-.636-.304-1.225-.58-1.996-.813l-.054.158 1.444.93.078-.006-.249.172c-.115.387-.34.836-.528 1.382-.72.586-1.653.551-1.798 1.745-.23.063-.392.083-.602.237l-.016.155c.132.184 1.301.679 1.58.727l.172-.166zm8.54-8.256.107.02-.143-.018c-.025 0-.05.002-.074.003.113-.21.445-.262.764-.239l-.022.152-.624.031-.008.05zm.446.277.3-.098c.13-.216.204-.445.138-.654-.309-.061-.487.014-.776.136a49.67 49.67 0 0 0-.157.257l-.06.1a.57.57 0 0 0 .06.06c.098.08.216.108.433.09.06.102-.01.057-.117.085l.18.024zm7.403 2.323-.322.06.198-.014.227.098-.344.63c.177-.209.353-.357.428-.674l-.187-.1zm-1.85 10.065c-.08-.143-.167-.237-.254-.259.077.073.166.159.254.259zm-1.018 3.096-.254.148.195-.018.06-.13zm1.018-3.096c.259.292.453.852.397 1.29.294-.635-.041-1.031-.397-1.29z"></path>
  </symbol>
  
  <symbol id="hh" xmlns="http://www.w3.org/2000/svg" viewBox="0 0 32 32">
    <defs></defs>
    <title></title>
    <polygon points="13 9 13 15 9 15 9 9 7 9 7 23 9 23 9 17 13 17 13 23 15 23 15 9 13 9"></polygon>
    <path d="M23,13H19V9H17V23h2V15h4v8h2V15A2,2,0,0,0,23,13Z"></path>
    <rect height="32" id="_Transparent_Rectangle_" width="32"></rect>
  </symbol>
  
  <symbol fill="currentColor" version="1.1" id="vk" xmlns="http://www.w3.org/2000/svg" xmlns:xlink="http://www.w3.org/1999/xlink" x="0px" y="0px" xml:space="preserve" viewBox="0 0 512 512">
    <path d="M440.649,295.361c16.984,16.582,34.909,32.182,50.142,50.436
	c6.729,8.112,13.099,16.482,17.973,25.896c6.906,13.382,0.651,28.108-11.348,28.907l-74.59-0.034
	c-19.238,1.596-34.585-6.148-47.489-19.302c-10.327-10.519-19.891-21.714-29.821-32.588c-4.071-4.444-8.332-8.626-13.422-11.932
	c-10.182-6.609-19.021-4.586-24.84,6.034c-5.926,10.802-7.271,22.762-7.853,34.8c-0.799,17.564-6.108,22.182-23.751,22.986
	c-37.705,1.778-73.489-3.926-106.732-22.947c-29.308-16.768-52.034-40.441-71.816-67.24
	C58.589,258.194,29.094,200.852,2.586,141.904c-5.967-13.281-1.603-20.41,13.051-20.663c24.333-0.473,48.663-0.439,73.025-0.034
	c9.89,0.145,16.437,5.817,20.256,15.16c13.165,32.371,29.274,63.169,49.494,91.716c5.385,7.6,10.876,15.201,18.694,20.55
	c8.65,5.923,15.236,3.96,19.305-5.676c2.582-6.11,3.713-12.691,4.295-19.234c1.928-22.513,2.182-44.988-1.199-67.422
	c-2.076-14.001-9.962-23.065-23.933-25.714c-7.129-1.351-6.068-4.004-2.616-8.073c5.995-7.018,11.634-11.387,22.875-11.387h84.298
	c13.271,2.619,16.218,8.581,18.035,21.934l0.072,93.637c-0.145,5.169,2.582,20.51,11.893,23.931
	c7.452,2.436,12.364-3.526,16.836-8.251c20.183-21.421,34.588-46.737,47.457-72.951c5.711-11.527,10.622-23.497,15.381-35.458
	c3.526-8.875,9.059-13.242,19.056-13.049l81.132,0.072c2.406,0,4.84,0.035,7.17,0.434c13.671,2.33,17.418,8.211,13.195,21.561
	c-6.653,20.945-19.598,38.4-32.255,55.935c-13.53,18.721-28.001,36.802-41.418,55.634
	C424.357,271.756,425.336,280.424,440.649,295.361L440.649,295.361z"></path>
    <g></g>
    <g></g>
    <g></g>
    <g></g>
    <g></g>
    <g></g>
    <g></g>
    <g></g>
    <g></g>
    <g></g>
    <g></g>
    <g></g>
    <g></g>
    <g></g>
    <g></g>
  </symbol>
  
  <symbol version="1.1" xmlns="http://www.w3.org/2000/svg" xmlns:xlink="http://www.w3.org/1999/xlink" preserveAspectRatio="xMidYMid" viewBox="0 0 256 256" id="tg">
    <g>
      <path d="M128,0 C57.307,0 0,57.307 0,128 L0,128 C0,198.693 57.307,256 128,256 L128,256 C198.693,256 256,198.693 256,128 L256,128 C256,57.307 198.693,0 128,0 L128,0 Z" fill="#40B3E0"></path>
      <path d="M190.2826,73.6308 L167.4206,188.8978 C167.4206,188.8978 164.2236,196.8918 155.4306,193.0548 L102.6726,152.6068 L83.4886,143.3348 L51.1946,132.4628 C51.1946,132.4628 46.2386,130.7048 45.7586,126.8678 C45.2796,123.0308 51.3546,120.9528 51.3546,120.9528 L179.7306,70.5928 C179.7306,70.5928 190.2826,65.9568 190.2826,73.6308" fill="#FFFFFF"></path>
      <path d="M98.6178,187.6035 C98.6178,187.6035 97.0778,187.4595 95.1588,181.3835 C93.2408,175.3085 83.4888,143.3345 83.4888,143.3345 L161.0258,94.0945 C161.0258,94.0945 165.5028,91.3765 165.3428,94.0945 C165.3428,94.0945 166.1418,94.5735 163.7438,96.8115 C161.3458,99.0505 102.8328,151.6475 102.8328,151.6475" fill="#D2E5F1"></path>
      <path d="M122.9015,168.1154 L102.0335,187.1414 C102.0335,187.1414 100.4025,188.3794 98.6175,187.6034 L102.6135,152.2624" fill="#B5CFE4"></path>
    </g>
  </symbol>
  
  <symbol id="alembic" xmlns="http://www.w3.org/2000/svg" viewBox="0 0 72 72">
    <g id="color">
      <g id="_2697">
        <path fill="#92d3f5" d="M17.9744,37.97c2.3079,5.3821,8.3214,10.7641,14.7,10.7641s11.9117-5.6449,14.7-10.7641Z"></path>
        <path fill="#61b2e4" d="M41.749,37.97c-2.46,4.5156-6.9725,9.914-12.4,10.6176a17.2181,17.2181,0,0,0,2.2169.1465c6.3789,0,14.1287-5.6449,16.9172-10.7641Z"></path>
      </g>
    </g>
    <g id="line">
      <g id="_2697-2">
        <path fill="none" stroke="#000" stroke-linecap="round" stroke-linejoin="round" stroke-width="2" d="M49.3016,32.5878l7.6734,5.4653,2.3028-2.2361S46.8365,16.4416,32.6746,16.4416a16.3919,16.3919,0,0,0-16.627,16.1462,16.3919,16.3919,0,0,0,16.627,16.1461,16.3919,16.3919,0,0,0,16.627-16.1461"></path>
        <polyline fill="none" stroke="#000" stroke-linecap="round" stroke-linejoin="round" stroke-width="2" points="12.722 55.558 18.265 44.794 47.085 44.794 52.627 55.558"></polyline>
        <line x1="32.6746" x2="32.6746" y1="44.7943" y2="55.5584" fill="none" stroke="#000" stroke-linecap="round" stroke-linejoin="round" stroke-width="2"></line>
      </g>
    </g>
  </symbol>

  <symbol fill="currentColor" xmlns="http://www.w3.org/2000/svg" viewBox="0 0 20 20" id="close-icon">
    <path d="M13.5556 10L19.3333 4.22222C20.2222 3.33333 20.2222 2 19.3333 1.22222L18.8889 0.777778C18 -0.111111 16.6667 -0.111111 15.8889 0.777778L10 6.44445L4.22222 0.666667C3.33333 -0.222222 2 -0.222222 1.11111 0.666667L0.666667 1.11111C-0.222222 2 -0.222222 3.33333 0.666667 4.11111L6.44445 10L0.666667 15.7778C-0.222222 16.6667 -0.222222 18 0.666667 18.7778L1.11111 19.3333C2 20.2222 3.33333 20.2222 4.11111 19.3333L10 13.5556L15.7778 19.3333C16.6667 20.2222 18 20.2222 18.7778 19.3333L19.2222 18.8889C20.1111 18 20.1111 16.6667 19.2222 15.8889L13.5556 10Z"></path>
  </symbol>

  <symbol version="1.1" xmlns="http://www.w3.org/2000/svg" viewBox="0 0 1024 1024" id="grid">
    <path d="M149.333333 149.333333v725.333334h725.333334V149.333333H149.333333z m682.666667 170.666667h-128V192h128v128z m-298.666667 0V192h128v128h-128z m128 42.666667v128h-128v-128h128z m-170.666666-42.666667h-128V192h128v128z m0 42.666667v128h-128v-128h128z m-170.666667 128H192v-128h128v128z m0 42.666666v128H192v-128h128z m42.666667 0h128v128h-128v-128z m128 170.666667v128h-128v-128h128z m42.666666 0h128v128h-128v-128z m0-42.666667v-128h128v128h-128z m170.666667-128h128v128h-128v-128z m0-42.666666v-128h128v128h-128zM320 192v128H192V192h128zM192 704h128v128H192v-128z m512 128v-128h128v128h-128z" fill="#90CAF9"></path>
  </symbol>

</svg>